<?xml version="1.0" encoding="UTF-8" standalone="no"?>
<!-- Created with Inkscape (http://www.inkscape.org/) -->

<svg
   width="29.380972mm"
   height="29.151592mm"
   viewBox="0 0 29.380972 29.151592"
   version="1.1"
   id="svg1"
   xml:space="preserve"
   xmlns="http://www.w3.org/2000/svg"
   xmlns:svg="http://www.w3.org/2000/svg"><defs
     id="defs1" /><g
     transform="matrix(1.0000126,0,0,0.99999288,-43.72035,-23.612832)"
     id="g20"><g
       fill="#ed6969"
       id="g5"><path
         d="m 52.732,23.613 c -1.9276,0 -3.4794,1.5518 -3.4794,3.4794 v 22.193 c 0,1.9276 1.5518,3.4794 3.4794,3.4794 H 63.99 c 1.9276,0 3.4794,-1.5518 3.4794,-3.4794 v -3.6241 h -9.1705 c -4.1502,0 -7.491,-3.3409 -7.491,-7.491 0,-4.1502 3.3409,-7.4915 7.491,-7.4915 h 9.1705 v -3.5863 c 0,-1.9276 -1.5518,-3.4794 -3.4794,-3.4794 z"
         stroke-width="0.26203"
         id="path1" /><g
         stroke-width="0.25656"
         id="g4"><path
           d="m 71.088,27.11 a 1.9692,1.9692 0 0 0 -1.9689,1.9689 1.9692,1.9692 0 0 0 0.82424,1.5999 h 2.2898 a 1.9692,1.9692 0 0 0 0.82424,-1.5999 1.9692,1.9692 0 0 0 -1.9694,-1.9689 z"
           id="path2" /><path
           d="m 70.022,45.665 a 1.9692,1.9692 0 0 0 -0.8599,1.6252 1.9692,1.9692 0 0 0 1.9694,1.9689 1.9692,1.9692 0 0 0 1.9689,-1.9689 1.9692,1.9692 0 0 0 -0.85731,-1.6252 z"
           id="path3" /><circle
           cx="45.688999"
           cy="31.858"
           r="1.9692"
           id="circle3" /><circle
           cx="45.702"
           cy="38.832001"
           r="1.9692"
           id="circle4" /></g></g></g></svg>
