<?xml version="1.0" encoding="UTF-8"?>
<svg xmlns="http://www.w3.org/2000/svg" xmlns:xlink="http://www.w3.org/1999/xlink" width="256px" height="256px" viewBox="0 0 256 256" version="1.1">
<g id="surface1">
<path style=" stroke:none;fill-rule:nonzero;fill:rgb(92.941176%,41.176471%,41.176471%);fill-opacity:1;" d="M 78.605469 0 C 61.792969 0 48.257812 13.667969 48.257812 30.640625 L 48.257812 226.085938 C 48.257812 243.0625 61.792969 256.726562 78.605469 256.726562 L 176.796875 256.726562 C 193.613281 256.726562 207.144531 243.0625 207.144531 226.085938 L 207.144531 194.171875 L 127.160156 194.171875 C 90.960938 194.171875 61.824219 164.75 61.824219 128.199219 C 61.824219 91.652344 90.960938 62.226562 127.160156 62.226562 L 207.144531 62.226562 L 207.144531 30.640625 C 207.144531 13.667969 193.613281 0 176.796875 0 Z M 78.605469 0 "/>
<path style=" stroke:none;fill-rule:nonzero;fill:rgb(92.941176%,41.176471%,41.176471%);fill-opacity:1;" d="M 238.707031 30.796875 C 229.222656 30.796875 221.535156 38.558594 221.535156 48.136719 C 221.542969 53.726562 224.21875 58.972656 228.722656 62.226562 L 248.695312 62.226562 C 253.203125 58.972656 255.878906 53.726562 255.886719 48.136719 C 255.882812 38.558594 248.195312 30.796875 238.707031 30.796875 Z M 238.707031 30.796875 "/>
<path style=" stroke:none;fill-rule:nonzero;fill:rgb(92.941176%,41.176471%,41.176471%);fill-opacity:1;" d="M 229.410156 194.203125 C 224.722656 197.429688 221.914062 202.785156 221.910156 208.515625 C 221.910156 218.09375 229.601562 225.855469 239.085938 225.855469 C 248.570312 225.855469 256.257812 218.089844 256.261719 208.515625 C 256.261719 202.792969 253.460938 197.433594 248.78125 194.203125 Z M 229.410156 194.203125 "/>
<path style=" stroke:none;fill-rule:nonzero;fill:rgb(92.941176%,41.176471%,41.176471%);fill-opacity:1;" d="M 34.351562 72.609375 C 34.351562 82.1875 26.660156 89.953125 17.175781 89.953125 C 7.691406 89.953125 0 82.1875 0 72.609375 C 0 63.03125 7.691406 55.269531 17.175781 55.269531 C 26.660156 55.269531 34.351562 63.03125 34.351562 72.609375 Z M 34.351562 72.609375 "/>
<path style=" stroke:none;fill-rule:nonzero;fill:rgb(92.941176%,41.176471%,41.176471%);fill-opacity:1;" d="M 34.464844 134.027344 C 34.464844 143.605469 26.773438 151.371094 17.289062 151.371094 C 7.804688 151.371094 0.113281 143.605469 0.113281 134.027344 C 0.113281 124.449219 7.804688 116.6875 17.289062 116.6875 C 26.773438 116.6875 34.464844 124.449219 34.464844 134.027344 Z M 34.464844 134.027344 "/>
</g>
</svg>
