<?xml version="1.0" ?><svg enable-background="new 0 0 64 64" id="Layer_1" version="1.1" viewBox="0 0 64 64" xml:space="preserve" xmlns="http://www.w3.org/2000/svg" xmlns:xlink="http://www.w3.org/1999/xlink"><path d="M63,28c0-4.8289185-3.44104-8.8692627-8-9.7984009v-7.1713257c0-1.8818359-0.7299805-3.6484375-2.0556641-4.9746094  C51.6191406,4.7304688,49.8530273,4,47.9702148,4c-0.9008789,0-1.8085938,0.1757813-2.612793,0.5029297l-16.6000977,6.6396484  l1.4853516,3.7148438l16.6118164-6.6445313c1.0571289-0.4316406,2.4204102-0.1708984,3.2612305,0.6708984  C50.6860352,9.4541016,51,10.2167969,51,11.0302734V18v20v3.9697266C51,43.640625,49.640625,45,47.9702148,45  c-0.3881836,0-0.7744141-0.0732422-1.1274414-0.2177734L24,35.6455078V14H12.3100586  c-2.6689453,0-5.1777344,1.0390625-7.0649414,2.9267578l-0.4790039,0.4785156  c-1.2050781,1.2050781-2.1450195,2.6074219-2.7958984,4.1728516C1.3266602,23.1425781,1,24.7988281,1,26.5  c0,3.4355469,1.3374023,6.6650391,3.765625,9.09375l2.3847656,2.3850708l3.5751953,18.7692261  C11.0844727,58.6328125,12.7368164,60,14.6547852,60h8.9282227c1.1962891,0,2.3198242-0.5283203,3.0820313-1.4501953  c0.7626953-0.9208984,1.0712891-2.1230469,0.8476563-3.2978516l-1.8334961-9.6259766l-3.9296875,0.7480469L23.5830078,56h-8.9277344  l-3.2382202-17h10.1967163l23.7319336,9.4921875C46.1616211,48.8242188,47.0693359,49,47.9702148,49  C51.8466797,49,55,45.8466797,55,41.9697266v-4.1713257C59.55896,36.8692627,63,32.8289185,63,28z M20,35H9.8286133  l-2.234375-2.234375C5.9213867,31.0927734,5,28.8671875,5,26.5c0-1.1767578,0.2250977-2.3203125,0.6669922-3.3925781  c0.4458008-1.0732422,1.0942383-2.0400391,1.9282227-2.8740234l0.4790039-0.4794922  C9.2055664,18.6230469,10.7099609,18,12.3100586,18H20V35z M55,33.6572266V22.3427734C57.328125,23.1679688,59,25.3925781,59,28  S57.328125,32.8320313,55,33.6572266z"/></svg>