<?xml version="1.0" ?><svg viewBox="0 0 32 32" xmlns="http://www.w3.org/2000/svg"><title/><g data-name="blog blogger blogspot post web" id="blog_blogger_blogspot_post_web"><path d="M26,12H24V8a5,5,0,0,0-5-5H8A5,5,0,0,0,3,8V20a1,1,0,0,0,2,0V8A3,3,0,0,1,8,5H19a3,3,0,0,1,3,3v5a1,1,0,0,0,1,1h3a1,1,0,0,1,1,1v9a3,3,0,0,1-3,3H8a3,3,0,0,1-3-3,1,1,0,0,0-2,0,5,5,0,0,0,5,5H24a5,5,0,0,0,5-5V15A3,3,0,0,0,26,12Z"/><path d="M11.5,14h4a2.5,2.5,0,0,0,0-5h-4a2.5,2.5,0,0,0,0,5Zm0-3h4a.5.5,0,0,1,0,1h-4a.5.5,0,0,1,0-1Z"/><path d="M11.5,23h9a2.5,2.5,0,0,0,0-5h-9a2.5,2.5,0,0,0,0,5Zm0-3h9a.5.5,0,0,1,0,1h-9a.5.5,0,0,1,0-1Z"/></g></svg>