<?xml version="1.0" ?><!DOCTYPE svg  PUBLIC '-//W3C//DTD SVG 1.1//EN'  'http://www.w3.org/Graphics/SVG/1.1/DTD/svg11.dtd'><svg height="8.4666mm" style="shape-rendering:geometricPrecision; text-rendering:geometricPrecision; image-rendering:optimizeQuality; fill-rule:evenodd; clip-rule:evenodd" version="1.1" viewBox="0 0 846.66 846.66" width="8.4666mm" xml:space="preserve" xmlns="http://www.w3.org/2000/svg" xmlns:xlink="http://www.w3.org/1999/xlink"><defs><style type="text/css">
   <![CDATA[
    .fil0 {fill:black;fill-rule:nonzero}
   ]]>
  </style></defs><g id="Layer_x0020_1"><path class="fil0" d="M252.81 521.44l83.54 0.2 -7.86 -50.31 -67.59 -0.15 -8.09 50.26zm-147.42 -321.21l-42.22 0 0 155.24 42.22 0 0 -155.24zm-62.93 -41.43l62.93 0 0 -11.23c0,-76.08 62.17,-138.25 138.25,-138.25l443.03 0c76.08,0 138.24,62.17 138.24,138.25l0 551.52c0,76.08 -62.16,138.25 -138.24,138.25l-443.03 0c-76.08,0 -138.25,-62.17 -138.25,-138.25l0 -11.23 -62.93 0c-11.44,0 -20.71,-9.28 -20.71,-20.72l0 -196.66c0,-11.44 9.27,-20.71 20.71,-20.71l62.93 0 0 -52.88 -62.93 0c-11.44,0 -20.71,-9.27 -20.71,-20.71l0 -196.66c0,-11.44 9.27,-20.72 20.71,-20.72zm62.93 332.39l-42.22 0 0 155.24 42.22 0 0 -155.24zm581.28 -440.45l-443.03 0c-53.21,0 -96.82,43.62 -96.82,96.83 0,183.84 0,367.68 0,551.52 0,53.21 43.61,96.83 96.82,96.83l443.03 0c53.2,0 96.82,-43.62 96.82,-96.83l0 -551.52c0,-53.21 -43.62,-96.83 -96.82,-96.83zm14.75 513.01l-131.58 -0.31c-12.75,0 -22.33,-11.37 -20.38,-23.86l13.83 -85.95c-16.54,-38.44 -57.7,-57.18 -97.75,-57.27 -40.18,-0.1 -81.37,18.34 -98.11,56.88l13.38 85.63c2.12,12.55 -7.52,24.09 -20.35,24.09l-131.15 -0.31c-12.91,0.45 -23.16,-10.98 -21.12,-23.87l14.73 -91.51c0.07,-0.43 0.16,-0.86 0.25,-1.27 23.3,-112.02 137.93,-163.22 242.91,-163.09 105.39,0.11 218.33,51.44 241.4,163.8 0.15,0.61 0.27,1.24 0.36,1.87l14.27 91.38c1.96,12.68 -7.97,23.97 -20.69,23.79zm-368.81 -133.67c25.09,-49.83 78.83,-75.11 132.93,-74.99 54.19,0.12 107.75,25.54 132.64,75.61l61.66 0.14c-30.18,-75.45 -118.12,-106.58 -193.76,-106.67 -75.53,-0.09 -164.31,30.63 -195.04,105.77l61.57 0.14zm261.45 92.16l83.55 0.19 -7.86 -50.3 -67.59 -0.16 -8.1 50.27z"/></g></svg>