<?xml version="1.0" encoding="UTF-8"?>
<svg xmlns="http://www.w3.org/2000/svg" xmlns:xlink="http://www.w3.org/1999/xlink" width="32px" height="32px" viewBox="0 0 32 32" version="1.1">
<g id="surface1">
<path style=" stroke:none;fill-rule:nonzero;fill:rgb(92.941176%,41.176471%,41.176471%);fill-opacity:1;" d="M 9.824219 0 C 7.722656 0 6.03125 1.707031 6.03125 3.832031 L 6.03125 28.261719 C 6.03125 30.382812 7.722656 32.089844 9.824219 32.089844 L 22.101562 32.089844 C 24.203125 32.089844 25.894531 30.382812 25.894531 28.261719 L 25.894531 24.269531 L 15.894531 24.269531 C 11.371094 24.269531 7.726562 20.59375 7.726562 16.023438 C 7.726562 11.457031 11.371094 7.777344 15.894531 7.777344 L 25.894531 7.777344 L 25.894531 3.832031 C 25.894531 1.707031 24.203125 0 22.101562 0 Z M 9.824219 0 "/>
<path style=" stroke:none;fill-rule:nonzero;fill:rgb(92.941176%,41.176471%,41.176471%);fill-opacity:1;" d="M 29.839844 3.847656 C 28.652344 3.851562 27.691406 4.820312 27.691406 6.015625 C 27.691406 6.714844 28.027344 7.371094 28.589844 7.777344 L 31.085938 7.777344 C 31.648438 7.371094 31.984375 6.714844 31.984375 6.015625 C 31.984375 4.820312 31.023438 3.847656 29.839844 3.847656 Z M 29.839844 3.847656 "/>
<path style=" stroke:none;fill-rule:nonzero;fill:rgb(92.941176%,41.176471%,41.176471%);fill-opacity:1;" d="M 28.675781 24.277344 C 28.089844 24.679688 27.738281 25.347656 27.738281 26.066406 C 27.738281 27.261719 28.699219 28.230469 29.886719 28.230469 C 31.070312 28.230469 32.03125 27.261719 32.03125 26.066406 C 32.03125 25.347656 31.683594 24.679688 31.097656 24.277344 Z M 28.675781 24.277344 "/>
<path style=" stroke:none;fill-rule:nonzero;fill:rgb(92.941176%,41.176471%,41.176471%);fill-opacity:1;" d="M 4.292969 9.078125 C 4.292969 10.273438 3.332031 11.242188 2.148438 11.242188 C 0.960938 11.242188 0 10.273438 0 9.078125 C 0 7.878906 0.960938 6.910156 2.148438 6.910156 C 3.332031 6.910156 4.292969 7.878906 4.292969 9.078125 Z M 4.292969 9.078125 "/>
<path style=" stroke:none;fill-rule:nonzero;fill:rgb(92.941176%,41.176471%,41.176471%);fill-opacity:1;" d="M 4.308594 16.753906 C 4.308594 17.949219 3.347656 18.921875 2.160156 18.921875 C 0.976562 18.921875 0.015625 17.949219 0.015625 16.753906 C 0.015625 15.554688 0.976562 14.585938 2.160156 14.585938 C 3.347656 14.585938 4.308594 15.554688 4.308594 16.753906 Z M 4.308594 16.753906 "/>
</g>
</svg>
