<?xml version="1.0" encoding="UTF-8" standalone="no"?>
<!-- Created with Inkscape (http://www.inkscape.org/) -->

<svg
   width="316.77"
   height="110.18"
   version="1.1"
   viewBox="0 0 83.811 29.152"
   xml:space="preserve"
   id="svg20"
   sodipodi:docname="polovnitelefoni-white.svg"
   inkscape:version="1.3.1 (6036e22fae, 2023-11-19, custom)"
   xmlns:inkscape="http://www.inkscape.org/namespaces/inkscape"
   xmlns:sodipodi="http://sodipodi.sourceforge.net/DTD/sodipodi-0.dtd"
   xmlns="http://www.w3.org/2000/svg"
   xmlns:svg="http://www.w3.org/2000/svg"><defs
     id="defs20" /><sodipodi:namedview
     id="namedview20"
     pagecolor="#ffffff"
     bordercolor="#000000"
     borderopacity="0.25"
     inkscape:showpageshadow="2"
     inkscape:pageopacity="0.0"
     inkscape:pagecheckerboard="0"
     inkscape:deskcolor="#d1d1d1"
     inkscape:zoom="4.0358907"
     inkscape:cx="170.47042"
     inkscape:cy="49.927021"
     inkscape:window-width="2490"
     inkscape:window-height="1011"
     inkscape:window-x="1990"
     inkscape:window-y="32"
     inkscape:window-maximized="1"
     inkscape:current-layer="g20" /><g
     transform="translate(-43.72 -23.613)"
     id="g20"><g
       fill="#ed6969"
       id="g5"><path
         d="m52.732 23.613c-1.9276 0-3.4794 1.5518-3.4794 3.4794v22.193c0 1.9276 1.5518 3.4794 3.4794 3.4794h11.258c1.9276 0 3.4794-1.5518 3.4794-3.4794v-3.6241h-9.1705c-4.1502 0-7.491-3.3409-7.491-7.491 0-4.1502 3.3409-7.4915 7.491-7.4915h9.1705v-3.5863c0-1.9276-1.5518-3.4794-3.4794-3.4794z"
         stroke-width=".26203"
         id="path1" /><g
         stroke-width=".25656"
         id="g4"><path
           d="m71.088 27.11a1.9692 1.9692 0 0 0-1.9689 1.9689 1.9692 1.9692 0 0 0 0.82424 1.5999h2.2898a1.9692 1.9692 0 0 0 0.82424-1.5999 1.9692 1.9692 0 0 0-1.9694-1.9689z"
           id="path2" /><path
           d="m70.022 45.665a1.9692 1.9692 0 0 0-0.8599 1.6252 1.9692 1.9692 0 0 0 1.9694 1.9689 1.9692 1.9692 0 0 0 1.9689-1.9689 1.9692 1.9692 0 0 0-0.85731-1.6252z"
           id="path3" /><circle
           cx="45.689"
           cy="31.858"
           r="1.9692"
           id="circle3" /><circle
           cx="45.702"
           cy="38.832"
           r="1.9692"
           id="circle4" /></g></g><g
       transform="scale(1.1596 .86235)"
       stroke-width=".15526"
       aria-label="POLOVNI TELEFONI"
       id="g19"><path
         d="m47.785 42.284h1.9013q0.73533 0 1.1196 0.36435 0.38423 0.35773 0.38423 1.0533t-0.38423 1.0599q-0.38423 0.36435-1.1196 0.36435h-1.5369v1.2123q0 0.19874-0.10599 0.31136-0.09937 0.11262-0.28486 0.11262-0.19211 0-0.29811-0.11262-0.09937-0.11262-0.09937-0.31136v-3.6303q0-0.19874 0.11262-0.31136t0.31136-0.11262zm0.36435 2.1199h1.4574q0.77508 0 0.77508-0.70221 0-0.33785-0.19874-0.51672t-0.57634-0.17886h-1.4574z"
         id="path5"
         style="fill:#ffffff" /><path
         d="m51.574 44.503q0-0.76845 0.37098-1.3249 0.11262-0.17886 0.34448-0.41072 0.24511-0.24511 0.66908-0.4041 0.4306-0.15899 0.92744-0.15899 0.52334 0 0.94069 0.16562 0.63596 0.24511 1.0003 0.8082 0.37098 0.55646 0.37098 1.3249 0 0.7552-0.37098 1.3315-0.11924 0.17886-0.3511 0.41072-0.23848 0.23848-0.66908 0.39748-0.42397 0.15899-0.92082 0.15899-0.52334 0-0.94069-0.16561-0.62934-0.24511-1.0003-0.80158-0.37098-0.57634-0.37098-1.3315zm1.2255-1.1328q-0.41735 0.43722-0.41735 1.1328t0.41735 1.1394q0.42397 0.43722 1.0864 0.43722t1.0798-0.43722q0.42397-0.44385 0.42397-1.1394t-0.42397-1.1328q-0.41735-0.44385-1.0798-0.44385t-1.0864 0.44385z"
         id="path6"
         style="fill:#ffffff" /><path
         d="m57.649 46h2.4643q0.17886 0 0.28486 0.09274 0.10599 0.09274 0.10599 0.26498 0 0.17224-0.10599 0.27161-0.10599 0.09274-0.28486 0.09274h-2.8287q-0.19874 0-0.31136-0.11262t-0.11262-0.31136v-3.6303q0-0.19874 0.09937-0.31136 0.10599-0.11262 0.29811-0.11262 0.18549 0 0.28486 0.11262 0.10599 0.11262 0.10599 0.31136z"
         id="path7"
         style="fill:#ffffff" /><path
         d="m60.517 44.503q0-0.76845 0.37098-1.3249 0.11262-0.17886 0.34448-0.41072 0.24511-0.24511 0.66908-0.4041 0.4306-0.15899 0.92744-0.15899 0.52334 0 0.94069 0.16562 0.63596 0.24511 1.0003 0.8082 0.37098 0.55646 0.37098 1.3249 0 0.7552-0.37098 1.3315-0.11924 0.17886-0.3511 0.41072-0.23848 0.23848-0.66908 0.39748-0.42397 0.15899-0.92082 0.15899-0.52334 0-0.94069-0.16561-0.62934-0.24511-1.0003-0.80158-0.37098-0.57634-0.37098-1.3315zm1.2255-1.1328q-0.41735 0.43722-0.41735 1.1328t0.41735 1.1394q0.42397 0.43722 1.0864 0.43722t1.0798-0.43722q0.42397-0.44385 0.42397-1.1394t-0.42397-1.1328q-0.41735-0.44385-1.0798-0.44385t-1.0864 0.44385z"
         id="path8"
         style="fill:#ffffff" /><path
         d="m69.281 42.244q0.17886 0 0.27823 0.10599 0.10599 0.09937 0.10599 0.27161 0.0066 0.0795-0.053 0.22524l-1.6694 3.5839q-0.15899 0.33123-0.47035 0.33123-0.33123 0-0.49022-0.33785l-1.6561-3.5707q-0.053-0.12587-0.053-0.21199 0-0.17886 0.11262-0.28486 0.11262-0.11262 0.29148-0.11262 0.24511 0 0.36435 0.24511l1.4309 3.1467h0.01325l1.4309-3.1268q0.10599-0.25836 0.36435-0.26498z"
         id="path9"
         style="fill:#ffffff" /><path
         d="m73.786 42.244q0.18549 0 0.28486 0.11262 0.10599 0.10599 0.10599 0.30473v3.617q0 0.21861-0.11924 0.3511t-0.33785 0.13249q-0.26498 0.0066-0.4571-0.23186l-2.3385-2.9877h-0.01325v2.8022q0 0.19874-0.10599 0.31136-0.09937 0.10599-0.28486 0.10599-0.17886 0-0.28486-0.10599-0.09937-0.11262-0.09937-0.31136v-3.617q0-0.21861 0.11924-0.3511 0.12587-0.13249 0.33785-0.13249 0.25836-0.0066 0.45047 0.22524l2.3451 3.0076h0.01325v-2.8154q0-0.19874 0.09937-0.30473 0.10599-0.11262 0.28486-0.11262z"
         id="path10"
         style="fill:#ffffff" /><path
         d="m75.396 42.244q0.18549 0 0.28486 0.11262 0.10599 0.11262 0.10599 0.31136v3.67q0 0.19874-0.10599 0.31136-0.09937 0.11262-0.28486 0.11262-0.19211 0-0.29811-0.11262-0.09937-0.11262-0.09937-0.31136v-3.67q0-0.19874 0.09937-0.31136 0.10599-0.11262 0.29811-0.11262z"
         id="path11"
         style="fill:#ffffff" /><path
         d="m78.158 42.284h3.4514q0.17886 0 0.27823 0.09937 0.10599 0.09274 0.10599 0.26498 0 0.17224-0.10599 0.26498-0.09937 0.09274-0.27823 0.09274h-1.3249v3.3322q0 0.19874-0.10599 0.31136-0.10599 0.11262-0.29148 0.11262-0.17886 0-0.28486-0.11262t-0.10599-0.31136v-3.3322h-1.3382q-0.17886 0-0.28486-0.09274-0.09937-0.09274-0.09937-0.26498 0-0.17224 0.09937-0.26498 0.10599-0.09937 0.28486-0.09937z"
         id="path12"
         style="fill:#ffffff" /><path
         d="m83.213 46h2.5637q0.17886 0 0.28486 0.09274 0.10599 0.09274 0.10599 0.26498 0 0.17224-0.10599 0.27161-0.10599 0.09274-0.28486 0.09274h-2.9281q-0.19874 0-0.31136-0.11262t-0.11262-0.31136v-3.5905q0-0.19874 0.11262-0.31136t0.31136-0.11262h2.9281q0.17886 0 0.28486 0.09937 0.10599 0.09274 0.10599 0.26498 0 0.17224-0.10599 0.26498-0.10599 0.09274-0.28486 0.09274h-2.5637v1.1262h2.0735q0.18549 0 0.28486 0.09937 0.10599 0.09275 0.10599 0.25836 0 0.16562-0.10599 0.26498-0.09937 0.09274-0.28486 0.09274h-2.0735z"
         id="path13"
         style="fill:#ffffff" /><path
         d="m87.545 46h2.4643q0.17886 0 0.28486 0.09274 0.10599 0.09274 0.10599 0.26498 0 0.17224-0.10599 0.27161-0.10599 0.09274-0.28486 0.09274h-2.8287q-0.19874 0-0.31136-0.11262t-0.11262-0.31136v-3.6303q0-0.19874 0.09937-0.31136 0.10599-0.11262 0.29811-0.11262 0.18549 0 0.28486 0.11262 0.10599 0.11262 0.10599 0.31136z"
         id="path14"
         style="fill:#ffffff" /><path
         d="m91.62 46h2.5637q0.17886 0 0.28486 0.09274 0.10599 0.09274 0.10599 0.26498 0 0.17224-0.10599 0.27161-0.10599 0.09274-0.28486 0.09274h-2.9281q-0.19874 0-0.31136-0.11262t-0.11262-0.31136v-3.5905q0-0.19874 0.11262-0.31136t0.31136-0.11262h2.9281q0.17886 0 0.28486 0.09937 0.10599 0.09274 0.10599 0.26498 0 0.17224-0.10599 0.26498-0.10599 0.09274-0.28486 0.09274h-2.5637v1.1262h2.0735q0.18549 0 0.28486 0.09937 0.10599 0.09275 0.10599 0.25836 0 0.16562-0.10599 0.26498-0.09937 0.09274-0.28486 0.09274h-2.0735z"
         id="path15"
         style="fill:#ffffff" /><path
         d="m95.588 42.284h2.8618q0.17886 0 0.28486 0.09937 0.10599 0.09274 0.10599 0.26498 0 0.17224-0.10599 0.26498-0.10599 0.09274-0.28486 0.09274h-2.4975v1.2189h2.0139q0.17886 0 0.27823 0.09274 0.10599 0.09274 0.10599 0.26498 0 0.17224-0.10599 0.27161-0.09937 0.09274-0.27823 0.09274h-2.0139v1.3912q0 0.19874-0.10599 0.31136-0.09937 0.11262-0.28486 0.11262-0.19211 0-0.29811-0.11262-0.09937-0.11262-0.09937-0.31136v-3.6303q0-0.19874 0.11262-0.31136t0.31136-0.11262z"
         id="path16"
         style="fill:#ffffff" /><path
         d="m99.039 44.503q0-0.76845 0.37098-1.3249 0.11262-0.17886 0.34448-0.41072 0.24511-0.24511 0.66908-0.4041 0.4306-0.15899 0.92745-0.15899 0.52334 0 0.94069 0.16562 0.63596 0.24511 1.0003 0.8082 0.37098 0.55646 0.37098 1.3249 0 0.7552-0.37098 1.3315-0.11924 0.17886-0.3511 0.41072-0.23849 0.23848-0.66909 0.39748-0.42397 0.15899-0.92081 0.15899-0.52335 0-0.9407-0.16561-0.62933-0.24511-1.0003-0.80158-0.37098-0.57634-0.37098-1.3315zm1.2255-1.1328q-0.41735 0.43722-0.41735 1.1328t0.41735 1.1394q0.42398 0.43722 1.0864 0.43722 0.66245 0 1.0798-0.43722 0.42398-0.44385 0.42398-1.1394t-0.42398-1.1328q-0.41735-0.44385-1.0798-0.44385-0.66246 0-1.0864 0.44385z"
         id="path17"
         style="fill:#ffffff" /><path
         d="m107.98 42.244q0.18549 0 0.28486 0.11262 0.10599 0.10599 0.10599 0.30473v3.617q0 0.21861-0.11924 0.3511t-0.33785 0.13249q-0.26499 0.0066-0.4571-0.23186l-2.3385-2.9877h-0.0132v2.8022q0 0.19874-0.10599 0.31136-0.0994 0.10599-0.28486 0.10599-0.17886 0-0.28486-0.10599-0.0994-0.11262-0.0994-0.31136v-3.617q0-0.21861 0.11925-0.3511 0.12586-0.13249 0.33785-0.13249 0.25836-0.0066 0.45047 0.22524l2.3451 3.0076h0.0132v-2.8154q0-0.19874 0.0994-0.30473 0.106-0.11262 0.28486-0.11262z"
         id="path18"
         style="fill:#ffffff" /><path
         d="m109.59 42.244q0.18549 0 0.28486 0.11262 0.10599 0.11262 0.10599 0.31136v3.67q0 0.19874-0.10599 0.31136-0.0994 0.11262-0.28486 0.11262-0.19211 0-0.2981-0.11262-0.0994-0.11262-0.0994-0.31136v-3.67q0-0.19874 0.0994-0.31136 0.10599-0.11262 0.2981-0.11262z"
         id="path19"
         style="fill:#ffffff" /></g></g></svg>
